<svg width="16" height="16" viewBox="0 0 16 16" fill="none" xmlns="http://www.w3.org/2000/svg">
<path d="M11.9727 13.3582C10.9114 14.4097 9.50212 14.9869 7.99999 14.9869C6.49786 14.9869 5.08863 14.4097 4.02726 13.3582C2.96984 12.3087 2.38678 10.9173 2.38678 9.43689C2.38678 8.57712 2.58048 7.75293 2.96194 6.98605C3.33352 6.23697 3.88693 5.56694 4.55893 5.05108C4.98751 4.72336 5.37623 4.34658 5.71715 3.92844C6.21127 3.32561 6.59867 2.6536 6.86747 1.93219C6.97773 1.6346 7.05785 1.32671 7.10662 1.01312C7.58295 1.4519 7.9822 1.9816 8.31623 2.60221C8.97637 3.83949 9.28075 4.94039 9.22146 5.87725C9.20729 6.09789 9.24333 6.31888 9.32686 6.5236C9.41039 6.72831 9.53924 6.91143 9.70372 7.05919C9.84626 7.18795 10.013 7.2871 10.1942 7.35089C10.3753 7.41468 10.5674 7.44183 10.7592 7.43076C11.1485 7.411 11.5063 7.23905 11.7672 6.9485C12.03 6.65401 12.2573 6.35358 12.4471 6.04723C12.7238 6.40102 12.955 6.78643 13.1388 7.20149C13.4531 7.90907 13.6132 8.66211 13.6132 9.43689C13.6132 10.9173 13.0301 12.3107 11.9727 13.3582Z" stroke="#97A2B0" stroke-linejoin="round"/>
<path d="M8.84726 11.9546C8.42128 12.3766 7.8557 12.6083 7.25283 12.6083C6.64996 12.6083 6.08437 12.3766 5.6584 11.9546C5.23401 11.5334 5 10.975 5 10.3808C5 10.0358 5.07774 9.70498 5.23084 9.3972C5.37997 9.09656 5.60208 8.82765 5.87178 8.62061C6.04379 8.48908 6.1998 8.33786 6.33662 8.17004C6.53494 7.9281 6.69041 7.6584 6.7983 7.36886C6.84255 7.24943 6.8747 7.12585 6.89428 7C7.08545 7.1761 7.24569 7.38869 7.37975 7.63777C7.64469 8.13435 7.76685 8.57619 7.74306 8.95219C7.73737 9.04074 7.75183 9.12943 7.78536 9.21159C7.81888 9.29376 7.87059 9.36725 7.93661 9.42655C7.99382 9.47823 8.06072 9.51802 8.13344 9.54362C8.20616 9.56922 8.28324 9.58012 8.3602 9.57568C8.51647 9.56775 8.66005 9.49873 8.76476 9.38213C8.87026 9.26393 8.96149 9.14336 9.03764 9.02041C9.14869 9.1624 9.2415 9.31708 9.31528 9.48366C9.4414 9.76765 9.50566 10.0699 9.50566 10.3808C9.50566 10.975 9.27165 11.5342 8.84726 11.9546Z" stroke="#97A2B0" stroke-linejoin="round"/>
</svg>
