<svg width="24" height="24" viewBox="0 0 24 24" fill="none" xmlns="http://www.w3.org/2000/svg">
<path d="M14.3383 8.80374L7.21326 21.1446" stroke="#0A2533" stroke-width="1.5" stroke-linecap="round" stroke-linejoin="round"/>
<path d="M12.5665 18.8943C11.2245 19.2538 9.08112 18.181 9.08112 18.181C9.08112 18.181 10.4287 15.7832 11.9304 15.4959C13.2565 15.2423 15.2282 16.5339 15.2282 16.5339C15.2282 16.5339 13.9084 18.5347 12.5665 18.8943Z" stroke="#0A2533" stroke-width="1.5" stroke-linecap="round" stroke-linejoin="round"/>
<path d="M15.5679 13.6957C14.2259 14.0553 12.0826 12.9825 12.0826 12.9825C12.0826 12.9825 13.4301 10.5846 14.9319 10.2974C16.258 10.0437 18.2297 11.3354 18.2297 11.3354C18.2297 11.3354 16.9099 13.3361 15.5679 13.6957Z" stroke="#0A2533" stroke-width="1.5" stroke-linecap="round" stroke-linejoin="round"/>
<path d="M17.3072 6.84355C16.6125 8.04673 14.3384 8.80373 14.3384 8.80373C14.3384 8.80373 13.5957 6.15534 14.4545 4.89033C15.2128 3.77324 17.5203 3.29237 17.5203 3.29237C17.5203 3.29237 18.0018 5.64036 17.3072 6.84355Z" stroke="#0A2533" stroke-width="1.5" stroke-linecap="round" stroke-linejoin="round"/>
<path d="M6.39605 15.3318C6.75563 16.6737 8.75639 17.9936 8.75639 17.9936C8.75639 17.9936 10.1592 15.6276 9.65711 14.1835C9.21374 12.9082 7.10927 11.8464 7.10927 11.8464C7.10927 11.8464 6.03647 13.9898 6.39605 15.3318Z" stroke="#0A2533" stroke-width="1.5" stroke-linecap="round" stroke-linejoin="round"/>
<path d="M9.39751 10.1332C9.7571 11.4751 11.7579 12.7949 11.7579 12.7949C11.7579 12.7949 13.1606 10.429 12.6586 8.98485C12.2152 7.70955 10.1107 6.64783 10.1107 6.64783C10.1107 6.64783 9.03793 8.79119 9.39751 10.1332Z" stroke="#0A2533" stroke-width="1.5" stroke-linecap="round" stroke-linejoin="round"/>
</svg>
