<svg width="264" height="172" viewBox="0 0 264 172" fill="none" xmlns="http://www.w3.org/2000/svg">
<mask id="mask0_2090_1236" style="mask-type:alpha" maskUnits="userSpaceOnUse" x="0" y="0" width="264" height="172">
<rect width="264" height="172" rx="16" fill="white"/>
</mask>
<g mask="url(#mask0_2090_1236)">
<circle cx="271" cy="30" r="151" fill="url(#paint0_linear_2090_1236)" fill-opacity="0.3"/>
<path d="M-135.173 16.0734C-127.256 14.0125 -105.869 16.9421 -83.654 45.1471C-55.8854 80.4033 1.8165 152.298 40.4604 106.076C79.1044 59.8542 88.8406 11.1877 65.7501 5.5958C42.6596 0.00394693 28.8346 49.1095 88.0498 70.8997C147.265 92.69 218.815 43.8428 216.823 -30.6034" stroke="#3DA0A7"/>
<path d="M275.926 165.624C278.953 193.531 252.429 201.389 239.598 195.077C193.725 171.888 214.034 160.584 233.725 134.655C253.415 108.727 272.899 137.716 275.926 165.624Z" stroke="#3DA0A7"/>
<path d="M276.712 97.0656C305.927 67.8498 305.927 20.4817 276.712 -8.73409C247.496 -37.9499 200.128 -37.9499 170.912 -8.73409C141.696 20.4817 141.696 67.8498 170.912 97.0656C200.128 126.281 247.496 126.281 276.712 97.0656Z" fill="#3DA0A7"/>
<path d="M223.815 116.649C263.847 116.649 296.298 84.1972 296.298 44.166C296.298 4.13477 263.847 -28.317 223.815 -28.317C183.784 -28.317 151.332 4.13477 151.332 44.166C151.332 84.1972 183.784 116.649 223.815 116.649Z" fill="#FFF6FA"/>
<path d="M274.121 94.4745C301.905 66.6896 301.905 21.6414 274.121 -6.14341C246.336 -33.9283 201.288 -33.9283 173.503 -6.14341C145.718 21.6414 145.718 66.6896 173.503 94.4745C201.288 122.259 246.336 122.259 274.121 94.4745Z" fill="#BCE5E8"/>
<path d="M194.154 108.834C203.184 112.983 213.224 115.314 223.815 115.314C263.109 115.314 294.964 83.4601 294.964 44.1662C294.964 21.4406 284.294 1.21869 267.707 -11.8072C269.338 -3.37302 269.911 5.32351 270.446 13.9214C271.031 23.3126 271.608 32.817 269.89 42.0676C267.766 53.4923 262.224 64.0125 255.794 73.6911C248.774 84.2554 240.438 94.2111 229.786 101.097C219.312 107.869 206.34 111.411 194.154 108.834Z" fill="#8FD2D7"/>
<path d="M264.189 84.5428C286.488 62.2432 286.488 26.0883 264.189 3.78859C241.889 -18.5111 205.734 -18.5111 183.434 3.78859C161.135 26.0883 161.135 62.2432 183.434 84.5428C205.734 106.843 241.889 106.843 264.189 84.5428Z" fill="#FFF6FA"/>
<path d="M223.815 98.8171C253.998 98.8171 278.467 74.3489 278.467 44.1658C278.467 13.9828 253.998 -10.4855 223.815 -10.4855C193.632 -10.4855 169.164 13.9828 169.164 44.1658C169.164 74.3489 193.632 98.8171 223.815 98.8171Z" fill="#ADDFE2"/>
<path d="M258.209 78.5625C277.206 59.5656 277.206 28.7655 258.209 9.76852C239.212 -9.22841 208.412 -9.22843 189.415 9.7685C170.418 28.7654 170.418 59.5656 189.415 78.5625C208.412 97.5594 239.212 97.5594 258.209 78.5625Z" fill="#FFF6FA"/>
<path d="M223.815 90.7711C249.922 90.7711 271.086 69.9052 271.086 44.1658C271.086 18.4263 249.922 -2.43958 223.815 -2.43958C197.709 -2.43958 176.545 18.4263 176.545 44.1658C176.545 69.9052 197.709 90.7711 223.815 90.7711Z" fill="#BCE5E8"/>
<path d="M191.977 19.8983C181.742 23.374 174.014 30.7334 169.861 40.6908C165.37 51.4625 169.457 61.6193 177.754 69.0924C185.175 75.7754 196.392 78.513 205.829 74.7616C214.944 71.1368 222.211 61.3546 220.3 51.1699C218.452 41.3207 210.2 34.2482 200.052 35.0104C188.719 35.8621 181.403 45.7282 178.028 55.6594C176.393 60.4694 175.724 65.6205 176.597 70.6355C177.581 76.2935 182.215 81.2525 186.397 84.8102C194.854 92.0019 206.292 94.3296 216.94 91.5938C239.13 85.893 249.039 57.797 240.713 38.0053C236.706 28.4822 228.083 21.2588 217.555 21.1637C208.094 21.078 198.88 27.4255 195.559 36.2498C191.899 45.976 193.785 56.6005 200.432 64.5433C207.635 73.1495 218.603 73.1234 228.139 68.8949C237.313 64.8266 237.999 52.3198 232.349 45.0759C226.516 37.5972 215.386 35.3403 207.501 41.1828C199.575 47.0569 194.534 58.9636 198.634 68.429C202.564 77.4974 211.016 82.6745 220.574 83.9586C242.062 86.8472 264.215 63.9824 260.07 42.5674C255.925 21.1451 223.69 15.0324 211.226 32.0044C204.161 41.6263 200.404 53.5125 199.426 65.3149C198.962 70.9039 199.284 76.7389 200.725 82.1657C202.262 87.9597 206.502 92.0951 210.904 95.869C215.228 99.5757 219.7 102.96 225.39 104.106C230.476 105.131 235.746 103.24 240.456 101.542C243.139 100.575 242.122 96.2156 239.408 97.194C232.585 99.654 226.652 101.109 219.991 97.2257C213.996 93.7295 207.303 87.8237 205.071 81.1184C200.982 68.8371 204.836 53.2348 210.371 42.0531C213.435 35.864 217.147 30.042 224.033 27.9101C230.517 25.9029 237.798 26.3856 243.952 29.2034C249.438 31.7156 253.544 36.6821 255.394 42.3587C257.651 49.2821 254.725 56.8596 251.335 62.8716C244.839 74.4 231.834 81.5675 218.612 79.1579C213.204 78.172 208.645 75.1511 205.192 70.9561C200.622 65.4043 200.935 58.5033 204.029 52.3664C207.331 45.8158 213.086 41.3486 220.671 42.5749C227.885 43.7415 232.461 51.3545 231.314 58.2815C230.155 65.2794 221.201 67.4338 215.213 67.4319C207.775 67.43 201.897 60.7713 199.482 54.3381C194.914 42.1761 201.599 28.799 214.3 25.97C228.128 22.8894 237.217 36.8722 239.183 48.6615C241.426 62.1206 233.922 77.1675 222.563 84.3555C210.727 91.8454 195.537 88.0976 186.204 78.5242C180.97 73.1551 179.862 67.1282 181.451 60.0185C183.116 52.5807 187.003 45.4971 193.714 41.576C207.654 33.4301 220.727 49.0659 213.876 62.2995C207.061 75.4642 189.42 73.6024 179.919 65.0484C175.04 60.6558 171.924 54.7984 172.478 48.1751C173.044 41.4083 177.349 35.0776 182.141 30.5639C185.221 27.6641 189.033 25.5973 193.017 24.2443C195.732 23.3255 194.709 18.9684 191.977 19.8983Z" fill="#FFA25F"/>
<path d="M199.342 84.3461C208.088 90.6974 218.558 92.7585 229.087 90.4011C240.476 87.8516 246.412 78.6509 247.722 67.5624C248.894 57.6442 244.656 46.9041 236.145 41.3654C227.925 36.0149 215.742 35.7279 208.528 43.1675C201.552 50.3611 200.54 61.185 207.02 69.029C214.257 77.7899 226.536 78.0713 236.596 75.0933C241.467 73.6508 246.059 71.2243 249.651 67.6164C253.702 63.5462 255.078 56.8987 255.568 51.4308C256.559 40.3739 251.857 29.6916 243.476 22.5744C226.012 7.74558 197.35 15.8729 185.995 34.0972C180.533 42.8656 179.61 54.0771 185.611 62.7281C191.002 70.5031 201.506 74.3627 210.628 71.981C220.684 69.3552 228.269 61.6826 230.918 51.6694C233.788 40.8193 227.434 31.8795 218.476 26.5328C209.859 21.3892 199.251 28.0498 196.597 36.8442C193.857 45.9238 198.438 56.3154 207.762 59.381C217.132 62.4616 229.766 59.7072 235.127 50.8941C240.265 42.45 239.611 32.5597 235.144 24.0132C225.099 4.79918 193.641 -0.0909417 178.548 15.6548C163.447 31.4062 177.064 61.2559 198.118 61.636C210.054 61.8522 221.927 58.0579 232.129 52.044C236.959 49.1963 241.538 45.566 245.139 41.2554C248.982 36.656 249.912 30.8079 250.454 25.0325C250.985 19.3634 251.166 13.7558 248.818 8.44815C246.719 3.70337 242.133 0.492374 238.027 -2.37388C235.687 -4.00642 232.716 -0.659338 235.081 0.98997C241.028 5.14026 245.642 9.14705 246.315 16.8271C246.92 23.7392 245.961 32.6138 241.775 38.3072C234.106 48.736 219.143 54.5952 206.815 56.5297C199.993 57.6013 193.095 57.9293 187.38 53.5386C181.997 49.4032 178.19 43.1787 176.938 36.5274C175.821 30.5974 177.508 24.3784 181.073 19.5908C185.423 13.752 193.3 11.7673 200.166 11.0628C213.329 9.71356 226.691 16.1953 232.354 28.3815C234.671 33.3667 234.835 38.8327 233.404 44.0732C231.508 51.0096 225.692 54.7369 218.895 55.7526C211.64 56.8372 204.67 54.7164 201.293 47.8154C198.082 41.2498 201.657 33.1207 207.974 30.0588C214.357 26.9652 221.286 33.0331 224.741 37.9251C229.032 43.9987 226.989 52.6422 223.129 58.33C215.835 69.0812 201.053 71.3436 191.412 62.607C180.916 53.0932 187.085 37.6008 195.578 29.1903C205.272 19.5889 221.892 17.0302 234.319 22.157C247.267 27.4981 252.975 42.0661 250.543 55.2121C249.181 62.5846 244.898 66.9697 238.174 69.7745C231.141 72.7078 223.111 73.6229 216.036 70.4081C201.338 63.727 206.558 44.0248 221.32 41.9804C236.003 39.9453 244.667 55.4264 243.165 68.1215C242.394 74.6423 239.412 80.5667 233.683 83.938C227.831 87.382 220.176 87.5218 213.724 86.2135C209.577 85.373 205.69 83.4535 202.285 80.9805C199.972 79.3013 197.005 82.6502 199.342 84.3461Z" fill="#FFA25F"/>
<path d="M209.745 84.3461C218.491 90.6974 228.961 92.7585 239.49 90.4011C250.879 87.8516 256.814 78.6509 258.125 67.5624C259.297 57.6442 255.059 46.9041 246.548 41.3654C238.327 36.0149 226.145 35.7279 218.931 43.1675C211.955 50.3611 210.943 61.185 217.423 69.029C224.659 77.7899 236.939 78.0713 246.999 75.0933C251.87 73.6508 256.462 71.2243 260.053 67.6164C264.105 63.5462 265.48 56.8987 265.97 51.4308C266.962 40.3739 262.26 29.6916 253.879 22.5744C236.415 7.74558 207.753 15.8729 196.398 34.0972C190.935 42.8656 190.013 54.0771 196.014 62.7281C201.405 70.5031 211.909 74.3627 221.031 71.981C231.087 69.3552 238.672 61.6826 241.32 51.6694C244.19 40.8193 237.837 31.8795 228.879 26.5328C220.261 21.3892 209.654 28.0498 207 36.8442C204.26 45.9238 208.841 56.3154 218.165 59.381C227.535 62.4616 240.169 59.7072 245.53 50.8941C250.668 42.45 250.014 32.5597 245.547 24.0132C235.502 4.79918 204.044 -0.0909417 188.951 15.6548C173.85 31.4062 187.467 61.2559 208.52 61.636C220.457 61.8522 232.33 58.0579 242.532 52.044C247.362 49.1963 251.941 45.566 255.542 41.2554C259.384 36.656 260.314 30.8079 260.857 25.0325C261.388 19.3634 261.569 13.7558 259.22 8.44815C257.122 3.70337 252.536 0.492374 248.43 -2.37388C246.089 -4.00642 243.119 -0.659338 245.484 0.98997C251.43 5.14026 256.045 9.14705 256.717 16.8271C257.323 23.7392 256.363 32.6138 252.178 38.3072C244.509 48.736 229.546 54.5952 217.218 56.5297C210.395 57.6013 203.498 57.9293 197.782 53.5386C192.4 49.4032 188.593 43.1787 187.34 36.5274C186.224 30.5974 187.911 24.3784 191.476 19.5908C195.825 13.752 203.703 11.7673 210.569 11.0628C223.731 9.71356 237.094 16.1953 242.757 28.3815C245.074 33.3667 245.238 38.8327 243.806 44.0732C241.911 51.0096 236.095 54.7369 229.298 55.7526C222.043 56.8372 215.073 54.7164 211.696 47.8154C208.485 41.2498 212.059 33.1207 218.377 30.0588C224.762 26.9652 231.689 33.0331 235.144 37.9251C239.434 43.9987 237.392 52.6422 233.532 58.33C226.238 69.0812 211.456 71.3436 201.815 62.607C191.317 53.0932 197.488 37.6008 205.98 29.1903C215.675 19.5889 232.295 17.0302 244.721 22.157C257.67 27.4981 263.378 42.0661 260.946 55.2121C259.584 62.5846 255.301 66.9697 248.577 69.7745C241.544 72.7078 233.514 73.6229 226.439 70.4081C211.741 63.727 216.961 44.0248 231.723 41.9804C246.406 39.9453 255.07 55.4264 253.568 68.1215C252.796 74.6423 249.815 80.5667 244.086 83.938C238.234 87.382 230.578 87.5218 224.126 86.2135C219.98 85.373 216.092 83.4535 212.688 80.9805C210.377 79.3013 207.41 82.6502 209.745 84.3461Z" fill="#FFA25F"/>
<path d="M188.056 65.5234C190.646 76.0175 197.318 84.346 206.886 89.3331C217.235 94.7283 227.703 91.5229 235.856 83.8932C243.148 77.0686 246.833 66.1272 243.899 56.4047C241.067 47.0139 231.941 38.9388 221.629 39.9732C211.659 40.9739 203.906 48.5924 203.8 58.7678C203.681 70.1303 212.887 78.2651 222.494 82.475C227.147 84.5138 232.222 85.6208 237.293 85.1791C243.014 84.6815 248.352 80.4865 252.252 76.6232C260.139 68.8109 263.436 57.6142 261.619 46.7698C257.832 24.1752 230.685 11.9032 210.255 18.5098C200.425 21.6891 192.493 29.6636 191.5 40.1446C190.607 49.5652 196.146 59.2859 204.653 63.3486C214.033 67.825 224.779 66.8522 233.258 60.9072C242.448 54.4647 243.357 43.5364 239.958 33.6722C236.687 24.1845 224.285 22.4346 216.586 27.4459C208.638 32.6193 205.438 43.5159 210.587 51.8705C215.762 60.268 227.196 66.308 236.976 63.0299C246.348 59.8878 252.226 51.9078 254.323 42.4946C259.036 21.3313 238.145 -2.69082 216.454 -0.391109C194.756 1.91047 185.915 33.5045 201.761 47.3717C210.746 55.2325 222.267 59.9904 233.942 61.9732C239.47 62.9125 245.312 63.0896 250.843 62.1168C256.747 61.0787 261.229 57.2098 265.367 53.1452C269.429 49.1552 273.183 44.9863 274.81 39.4159C276.265 34.4363 274.83 29.0244 273.54 24.1864C272.804 21.4301 268.376 22.0712 269.12 24.8573C270.989 31.8645 271.932 37.9027 267.495 44.2054C263.501 49.8802 257.044 56.0432 250.172 57.6962C237.586 60.7227 222.371 55.5512 211.702 49.0807C205.796 45.4988 200.313 41.3038 198.776 34.2611C197.328 27.6285 198.431 20.4181 201.765 14.5253C204.735 9.27366 210.034 5.60606 215.848 4.24748C222.937 2.58885 230.239 6.15207 235.94 10.0415C246.87 17.4978 252.905 31.0669 249.375 44.0359C247.931 49.3397 244.531 53.6242 240.057 56.7066C234.134 60.7861 227.287 59.8841 221.435 56.278C215.19 52.4278 211.23 46.3132 213.101 38.8606C214.879 31.7713 222.855 27.8633 229.66 29.5965C236.534 31.3483 237.915 40.4539 237.403 46.4213C236.766 53.831 229.632 59.12 223.014 60.9781C210.505 64.491 197.749 56.6899 196.016 43.7936C194.128 29.753 208.834 21.8904 220.748 20.9381C234.35 19.8516 248.7 28.6125 254.893 40.5453C261.345 52.9775 256.313 67.7933 245.979 76.2728C240.183 81.0288 234.084 81.6196 227.136 79.4279C219.868 77.1357 213.14 72.6574 209.806 65.6353C202.879 51.0505 219.575 39.36 232.175 47.3139C244.71 55.2288 241.35 72.6462 232.015 81.381C227.222 85.8668 221.12 88.4721 214.568 87.3539C207.874 86.2134 201.933 81.3829 197.846 76.2225C195.218 72.9053 193.485 68.932 192.478 64.8469C191.793 62.0739 187.365 62.7224 188.056 65.5234Z" fill="#EABF58"/>
<path d="M184.64 26.8903C177.361 35.6344 174.467 46.4863 176.209 57.709C178.095 69.8487 187.344 76.7217 198.9 78.8705C209.234 80.7919 220.811 77.087 227.22 68.5348C233.411 60.2715 234.561 47.4982 227.25 39.4045C220.179 31.5773 208.884 29.7621 200.192 36.022C190.486 43.0125 189.336 55.8901 191.765 66.6619C192.941 71.8782 195.17 76.8708 198.709 80.8944C202.7 85.4323 209.587 87.3388 215.297 88.2352C226.84 90.0448 238.387 85.8516 246.445 77.5436C263.235 60.2324 256.693 29.5646 238.344 16.3701C229.516 10.0226 217.805 8.27453 208.301 13.9735C199.758 19.0947 194.974 29.8572 196.841 39.6039C198.899 50.3477 206.43 58.8496 216.763 62.3271C227.958 66.0953 237.791 60.0479 244.03 51.0093C250.031 42.3174 243.775 30.7107 234.723 27.3133C225.377 23.8041 214.143 27.8929 210.276 37.4701C206.389 47.0976 208.403 60.5585 217.285 66.8035C225.796 72.7876 236.229 72.7895 245.517 68.6914C266.397 59.4776 273.721 26.7803 258.235 9.83066C242.742 -7.1246 210.444 5.09703 208.58 27.1847C207.523 39.7064 210.68 52.4406 216.286 63.5739C218.94 68.846 222.436 73.9077 226.711 77.989C231.275 82.3462 237.353 83.729 243.38 84.6999C249.297 85.6522 255.173 86.2318 260.911 84.1352C266.041 82.2604 269.733 77.6666 273.028 73.5554C274.907 71.211 271.599 67.8583 269.7 70.227C264.925 76.185 260.398 80.7509 252.284 80.9242C244.982 81.0789 235.728 79.4538 230.04 74.6606C219.62 65.881 214.508 49.757 213.334 36.6743C212.684 29.4341 212.82 22.1678 217.829 16.4707C222.548 11.1054 229.348 7.54025 236.423 6.68857C242.729 5.92821 249.144 8.1329 253.924 12.2124C259.755 17.1864 261.289 25.5988 261.552 32.8576C262.053 46.777 254.315 60.3591 241.123 65.4599C235.726 67.5471 229.973 67.3384 224.568 65.4692C217.414 62.9962 213.905 56.6281 213.312 49.4178C212.678 41.721 215.39 34.5498 222.872 31.4841C229.991 28.5675 238.281 32.8874 241.058 39.7381C243.862 46.6577 237.006 53.5122 231.629 56.8015C224.95 60.8847 216.016 58.1376 210.311 53.6892C199.529 45.2786 198.179 29.5981 208.029 20.0806C218.752 9.71884 234.593 17.2758 242.835 26.7803C252.245 37.6303 253.775 55.264 247.526 67.959C241.015 81.1851 225.317 86.1666 211.679 82.7003C204.031 80.7546 199.724 75.9539 197.246 68.697C194.653 61.1064 194.251 52.6083 198.121 45.4016C206.161 30.4293 226.49 37.2837 227.61 52.9288C228.724 68.4938 211.864 76.5149 198.634 74.0549C191.839 72.7913 185.825 69.2467 182.683 62.9943C179.474 56.6076 179.86 48.5586 181.682 41.8738C182.855 37.5782 185.141 33.6273 187.974 30.2243C189.895 27.9041 186.584 24.5552 184.64 26.8903Z" fill="#F7D075"/>
<path d="M259.714 20.6159C258.035 9.36335 251.863 -0.0218353 242.328 -6.19043C232.015 -12.8641 220.729 -10.5364 211.431 -3.34467C203.118 3.08856 198.177 14.192 200.293 24.6693C202.337 34.7906 211.103 44.1517 222.011 44.0827C232.559 44.0175 241.434 36.7959 242.547 26.1435C243.791 14.2461 234.947 4.8161 225.291 -0.541821C220.615 -3.13785 215.407 -4.79644 210.049 -4.83371C204.005 -4.87657 197.998 -1.00583 193.529 2.65805C184.495 10.0678 179.936 21.4769 180.773 33.0183C182.514 57.0703 209.754 72.6055 231.816 67.6948C242.431 65.3317 251.529 57.7561 253.603 46.8707C255.467 37.0866 250.622 26.3522 242.105 21.257C232.718 15.6401 221.361 15.6009 211.886 20.9961C201.621 26.8423 199.59 38.2048 202.18 48.8759C204.672 59.1408 217.498 62.1971 226.059 57.7039C234.898 53.0653 239.326 41.9619 234.753 32.6997C230.157 23.389 218.77 15.9326 208.198 18.4038C198.067 20.7725 191.12 28.555 187.996 38.2141C180.972 59.9272 200.498 87.1604 223.454 86.8883C246.419 86.6143 258.799 54.3755 243.558 38.2812C234.919 29.1569 223.314 23.0368 211.273 19.809C205.572 18.2808 199.469 17.5186 193.576 17.9938C187.286 18.4989 182.208 22.1143 177.472 25.9645C172.823 29.7458 168.479 33.7452 166.224 39.4218C164.207 44.4983 165.178 50.3109 166.052 55.5067C166.552 58.468 171.255 58.2313 170.752 55.2383C169.485 47.7093 169.092 41.291 174.362 35.1224C179.107 29.5706 186.481 23.7468 193.844 22.692C207.333 20.7613 222.768 27.6809 233.31 35.5119C239.145 39.8467 244.479 44.7853 245.396 52.3162C246.259 59.4091 244.392 66.858 240.32 72.7042C236.689 77.9149 230.774 81.2359 224.548 82.0876C216.953 83.1275 209.655 78.6734 204.065 74.0349C193.345 65.1435 188.36 50.3277 193.336 37.0867C195.371 31.6691 199.357 27.5151 204.348 24.7271C210.956 21.0352 218.044 22.6547 223.819 27.0119C229.984 31.6616 233.53 38.4601 230.837 46.0861C228.275 53.3393 219.533 56.6491 212.572 54.163C205.541 51.649 204.989 41.9712 206.116 35.7691C207.514 28.0667 215.513 23.2287 222.63 21.9335C236.083 19.4847 248.683 28.9184 249.231 42.603C249.826 57.5026 233.64 64.2937 221.061 64.1167C206.7 63.9154 192.523 53.3188 187.21 40.2045C181.673 26.5404 188.406 11.5103 200.073 3.64205C206.616 -0.77101 213.066 -0.78965 220.131 2.19401C227.522 5.31372 234.13 10.6698 236.931 18.3554C242.753 34.3229 224.104 44.9288 211.685 35.3497C199.329 25.821 204.566 7.89855 215.209 -0.336804C220.675 -4.56537 227.324 -6.69365 234.082 -4.87848C240.985 -3.02231 246.734 2.62451 250.508 8.43529C252.934 12.17 254.358 16.5048 255.012 20.8843C255.46 23.8624 260.163 23.6219 259.714 20.6159Z" fill="#FCDB9A"/>
<path d="M199.53 -13.5238L200.462 -9.16851L203.183 -3.38199L204.756 92.5369L202.104 102.571L200.017 105.8L199.53 -13.5238Z" fill="url(#paint1_radial_2090_1236)"/>
<path d="M201.724 92.8627C201.888 92.8925 202.007 92.9149 202.11 92.9372C202.223 92.941 202.376 92.9465 202.602 92.9614C203.243 93.0006 203.878 93.0248 204.519 93.0323C204.555 93.0323 204.588 93.0379 204.624 93.0397L204.756 92.5384L203.185 -3.38048L203.028 -3.71408C202.987 -3.68985 202.946 -3.66933 202.905 -3.6451C202.551 -3.43638 202.199 -3.22207 201.851 -3.00216C201.7 -2.86053 200.978 -2.29212 200.788 -2.11135C200.418 -1.75539 200.011 -1.45719 199.584 -1.20374L199.965 92.4154C200.542 92.5869 201.126 92.7546 201.724 92.8627Z" fill="#8A6D3F"/>
<path d="M198.103 -33.582L193.85 122.688C193.85 122.688 197.678 125.027 200.015 122.688V-33.582C200.017 -33.582 199.592 -36.7725 198.103 -33.582Z" fill="#912828"/>
<path d="M199.113 -34.9651L195.03 123.245C195.03 123.245 196.824 123.887 198.028 123.68L197.935 116.924L199.113 -34.9651Z" fill="#B95F5F"/>
<path d="M199.113 -34.9651L196.645 123.648C196.645 123.648 199.869 124.03 200.017 122.686L199.456 -34.9353C199.456 -34.9353 199.256 -35.0415 199.113 -34.9651C199.113 -34.9651 198.969 -34.8868 199.113 -34.9651Z" fill="#AF4040"/>
<path d="M198.004 54.8154C198.004 55.5646 197.741 56.174 197.417 56.174C197.093 56.174 196.83 55.5664 196.83 54.8154C196.83 54.0662 197.093 53.4568 197.417 53.4568C197.741 53.4568 198.004 54.0644 198.004 54.8154Z" fill="#FFA773"/>
<path d="M186.658 4.18621L187.162 9.53294L189.131 86.8939L187.896 89.1992C187.896 89.1992 186.524 90.6193 186.66 92.0207L184.715 91.3498L185.182 0.302399L186.658 4.18621Z" fill="url(#paint2_radial_2090_1236)"/>
<path d="M187.107 8.97029C187.055 9.0262 187.003 9.08027 186.949 9.13618C186.433 9.87045 185.814 10.5003 185.126 11.0091L184.748 84.5589C185.218 84.7136 185.676 84.9037 186.097 85.1814C186.643 85.541 187.158 85.9417 187.666 86.3517C188.06 86.6443 188.462 86.9164 188.915 87.1195C188.939 87.1307 188.962 87.1475 188.986 87.1587L189.129 86.8922L187.16 9.53124L187.107 8.97029Z" fill="#8A6D3F"/>
<path d="M183.704 -33.582L179.452 122.688C179.452 122.688 183.279 125.027 185.616 122.688V-33.582C185.618 -33.582 185.193 -36.7725 183.704 -33.582Z" fill="#912828"/>
<path d="M184.714 -34.9651L180.631 123.245C180.631 123.245 182.426 123.887 183.63 123.68L183.537 116.924L184.714 -34.9651Z" fill="#B95F5F"/>
<path d="M184.715 -34.9651L182.247 123.648C182.247 123.648 185.471 124.03 185.618 122.686L185.058 -34.9353C185.056 -34.9353 184.856 -35.0415 184.715 -34.9651C184.715 -34.9651 184.571 -34.8868 184.715 -34.9651Z" fill="#AF4040"/>
<path d="M183.606 54.8154C183.606 55.5646 183.343 56.174 183.019 56.174C182.694 56.174 182.432 55.5664 182.432 54.8154C182.432 54.0662 182.694 53.4568 183.019 53.4568C183.343 53.4568 183.606 54.0644 183.606 54.8154Z" fill="#FFA773"/>
<path d="M187.161 9.53284L190.658 87.1584L189.131 86.8919L187.161 9.53284Z" fill="#FFD38F"/>
<path d="M203.183 -3.38223L205.678 92.6131L204.622 93.038L203.183 -3.38223Z" fill="#FFD38F"/>
<path d="M197.417 99.7696C197.417 100.811 197.029 101.657 196.55 101.657C196.071 101.657 195.684 100.811 195.684 99.7696C195.684 98.7278 196.071 97.8818 196.55 97.8818C197.029 97.8818 197.417 98.726 197.417 99.7696Z" fill="white"/>
<path d="M182.726 62.0986C182.99 62.0986 183.205 61.6655 183.205 61.1313C183.205 60.5972 182.99 60.1641 182.726 60.1641C182.461 60.1641 182.247 60.5972 182.247 61.1313C182.247 61.6655 182.461 62.0986 182.726 62.0986Z" fill="white"/>
<path d="M260.303 75.0093C276.28 75.0093 289.232 62.633 289.232 47.3661C289.232 32.0992 276.28 19.7229 260.303 19.7229C244.326 19.7229 231.374 32.0992 231.374 47.3661C231.374 62.633 244.326 75.0093 260.303 75.0093Z" fill="#5C1A09"/>
<path d="M259.697 74.3719C275.34 74.3719 288.021 62.1383 288.021 47.0474C288.021 31.9565 275.34 19.7229 259.697 19.7229C244.055 19.7229 231.374 31.9565 231.374 47.0474C231.374 62.1383 244.055 74.3719 259.697 74.3719Z" fill="#6A2A2A"/>
<path d="M259.507 73.1551C274.783 73.1551 287.166 60.7716 287.166 45.4958C287.166 30.2199 274.783 17.8364 259.507 17.8364C244.231 17.8364 231.847 30.2199 231.847 45.4958C231.847 60.7716 244.231 73.1551 259.507 73.1551Z" fill="#D34040"/>
<path d="M259.507 72.0535C274.174 72.0535 286.064 60.1633 286.064 45.496C286.064 30.8287 274.174 18.9384 259.507 18.9384C244.84 18.9384 232.949 30.8287 232.949 45.496C232.949 60.1633 244.84 72.0535 259.507 72.0535Z" fill="#F35C53"/>
<path d="M277.75 63.75C287.829 53.6708 287.829 37.3292 277.75 27.25C267.671 17.1708 251.329 17.1708 241.25 27.25C231.171 37.3292 231.171 53.6708 241.25 63.75C251.329 73.8292 267.671 73.8292 277.75 63.75Z" fill="#F35C53"/>
<path d="M259.507 70.9604C273.571 70.9604 284.971 59.5595 284.971 45.4958C284.971 31.4321 273.571 20.0312 259.507 20.0312C245.443 20.0312 234.042 31.4321 234.042 45.4958C234.042 59.5595 245.443 70.9604 259.507 70.9604Z" fill="#C02E24"/>
<path d="M277.053 63.0527C286.747 53.3586 286.747 37.6414 277.053 27.9473C267.359 18.2532 251.641 18.2532 241.947 27.9473C232.253 37.6414 232.253 53.3586 241.947 63.0527C251.641 72.7468 267.359 72.7468 277.053 63.0527Z" fill="#FF9D97"/>
<path d="M277.736 61.2654C286.089 51.2065 284.607 36.1996 274.427 27.7466C264.248 19.2936 249.224 20.5954 240.871 30.6542C232.519 40.7131 234 55.7199 244.18 64.1729C254.36 72.626 269.384 71.3242 277.736 61.2654Z" fill="#DF6565"/>
<path d="M259.507 66.669C271.2 66.669 280.68 57.1895 280.68 45.4959C280.68 33.8024 271.2 24.3229 259.507 24.3229C247.813 24.3229 238.334 33.8024 238.334 45.4959C238.334 57.1895 247.813 66.669 259.507 66.669Z" fill="#FF9D97"/>
<path d="M266.298 64.6482C276.873 60.8817 282.393 49.2554 278.626 38.6802C274.86 28.1049 263.233 22.5853 252.658 26.3518C242.083 30.1182 236.563 41.7445 240.33 52.3197C244.096 62.895 255.722 68.4146 266.298 64.6482Z" fill="#FF8585"/>
<path d="M259.507 64.1204C269.793 64.1204 278.131 55.782 278.131 45.4961C278.131 35.2101 269.793 26.8717 259.507 26.8717C249.221 26.8717 240.882 35.2101 240.882 45.4961C240.882 55.782 249.221 64.1204 259.507 64.1204Z" fill="#F26C6C"/>
<path d="M259.507 63.4747C269.436 63.4747 277.485 55.4253 277.485 45.4959C277.485 35.5665 269.436 27.5171 259.507 27.5171C249.577 27.5171 241.528 35.5665 241.528 45.4959C241.528 55.4253 249.577 63.4747 259.507 63.4747Z" fill="#FF8585"/>
<path d="M267.572 47.4686C268.655 43.0029 265.913 38.5047 261.447 37.4216C256.981 36.3385 252.483 39.0806 251.4 43.5463C250.317 48.012 253.059 52.5102 257.525 53.5933C261.99 54.6764 266.489 51.9343 267.572 47.4686Z" fill="#CA4844"/>
<path d="M260.19 53.0284C264.374 52.6406 267.452 48.9345 267.064 44.7507C266.676 40.5668 262.97 37.4896 258.786 37.8774C254.602 38.2652 251.525 41.9713 251.913 46.1551C252.301 50.339 256.007 53.4162 260.19 53.0284Z" fill="#FF928A"/>
<path d="M260.146 52.5508C264.065 52.1874 266.948 48.7156 266.585 44.7961C266.221 40.8767 262.749 37.9939 258.83 38.3572C254.91 38.7206 252.028 42.1924 252.391 46.1119C252.754 50.0313 256.226 52.9141 260.146 52.5508Z" fill="#FF685F"/>
<path d="M268.62 27.1298C266.472 30.7736 264.321 34.4197 262.173 38.0635C262.26 38.3863 262.696 38.4998 263.003 38.3662C263.311 38.2327 263.511 37.9389 263.696 37.6584C264.953 35.7575 266.211 33.8565 267.36 31.8888C268.096 30.6267 268.806 29.2867 268.902 27.8287C268.918 27.5794 268.867 27.2611 268.624 27.201L268.62 27.1298Z" fill="#CA4844"/>
<path d="M260.426 42.4841C262.189 39.3144 263.952 36.1425 265.713 32.9727C267.004 30.6489 268.31 28.2916 268.994 25.7407C271.614 26.2393 274.058 27.4858 275.974 29.2999C270.721 33.8765 265.786 38.8336 261.23 44.1157L260.426 42.4841Z" fill="#DF6565"/>
<path d="M263.168 45.5208C266.596 46.0505 270.024 46.5803 273.452 47.1101C275.965 47.4996 278.512 47.8891 281.04 47.6309C281.403 50.2442 281.031 52.9553 279.981 55.3772C274.189 52.0895 268.154 49.2314 261.94 46.8385L263.168 45.5208Z" fill="#DF6565"/>
<path d="M244.048 60.1648C246.922 56.7569 250.561 54.0969 254.165 51.4703C253.942 51.0964 253.646 50.7647 253.299 50.4998C251.405 51.9645 249.604 53.5471 247.908 55.2366C246.405 56.7324 244.967 58.344 244.052 60.2561L244.048 60.1648Z" fill="#CA4844"/>
<path d="M256.829 48.002C254.249 50.3214 251.669 52.6386 249.092 54.958C247.2 56.6586 245.288 58.3815 243.885 60.5028C241.633 59.1294 239.767 57.1261 238.559 54.78C244.769 52.376 250.801 49.5112 256.586 46.2124L256.829 48.002Z" fill="#DF6565"/>
<path d="M260.056 66.8915C259.251 62.3462 258.886 57.7207 258.968 53.1041C259.371 52.9817 259.792 52.9261 260.212 52.9394C261.096 57.4959 261.141 62.2148 260.344 66.7891L260.056 66.8915Z" fill="#CA4844"/>
<path d="M260.651 49.1886C261.839 52.4474 263.026 55.7062 264.215 58.9649C265.085 61.3533 265.971 63.7729 267.415 65.8653C265.301 67.4435 262.745 68.4251 260.119 68.67C260.208 62.0122 259.801 55.3456 258.901 48.7479L260.651 49.1886Z" fill="#DF6565"/>
<path d="M242.238 32.8458C243.509 33.1129 244.35 34.2726 245.245 35.2142C247.465 37.5558 250.614 38.9359 252.546 41.5202C252.74 41.2843 252.934 41.0483 253.127 40.8124C253.187 40.7389 253.25 40.661 253.256 40.5675C253.265 40.4495 253.185 40.3449 253.109 40.2536C250.55 37.1908 247.767 34.1257 244.112 32.5208C243.442 32.2269 242.605 32.0044 242.024 32.4473C242.02 32.5364 242.013 32.6276 242.007 32.7167L242.238 32.8458Z" fill="#CA4844"/>
<path d="M256.057 43.1164C253.33 40.9728 250.605 38.827 247.878 36.6834C245.88 35.1119 243.854 33.5226 241.523 32.5054C242.492 30.0502 244.146 27.871 246.249 26.2772C249.682 31.9845 253.537 37.4358 257.777 42.571L256.057 43.1164Z" fill="#DF6565"/>
<path d="M258.327 36.7743C257 35.6991 256.319 33.8828 256.613 32.2C256.751 31.4075 257.152 30.5884 257.893 30.2701C258.848 29.8605 260.014 30.4994 260.455 31.4409C260.893 32.3825 260.749 33.5021 260.386 34.4749C260.023 35.4521 259.453 36.3513 258.723 37.097C258.63 37.048 258.407 36.8388 258.327 36.7743Z" fill="#CA4844"/>
<path d="M258.572 35.8995C257.481 35.0158 256.922 33.5222 257.163 32.1399C257.276 31.4877 257.606 30.8133 258.213 30.5528C258.997 30.2145 259.958 30.742 260.319 31.5166C260.68 32.2913 260.559 33.2106 260.263 34.0119C259.965 34.8155 259.495 35.5545 258.897 36.1688C258.821 36.1243 258.638 35.9529 258.572 35.8995Z" fill="#FAD383"/>
<path d="M259.709 32.5743C259.438 32.9015 258.952 32.9461 258.623 32.6745C258.293 32.4029 258.251 31.9177 258.523 31.5882C258.794 31.261 259.28 31.2165 259.609 31.4881C259.936 31.7596 259.981 32.2471 259.709 32.5743Z" fill="#E4B34C"/>
<path d="M259.342 34.6241C259.155 34.8489 258.825 34.8867 258.607 34.7042C258.389 34.5239 258.365 34.1922 258.552 33.9674C258.739 33.7426 259.068 33.7048 259.286 33.8873C259.504 34.0676 259.529 34.3993 259.342 34.6241Z" fill="#E4B34C"/>
<path d="M259.607 31.9866C259.471 32.1513 259.204 32.1513 259.008 31.9911C258.814 31.8286 258.765 31.5659 258.901 31.4012C259.037 31.2365 259.306 31.2365 259.5 31.3967C259.696 31.5592 259.743 31.8241 259.607 31.9866Z" fill="#FFEAB8"/>
<path d="M250.717 45.251C249.561 46.5087 247.705 47.0741 246.044 46.6756C245.261 46.4887 244.468 46.0368 244.197 45.2778C243.847 44.3006 244.56 43.1743 245.526 42.7936C246.492 42.413 247.6 42.6289 248.549 43.0518C249.501 43.4748 250.365 44.1002 251.062 44.8749C251.008 44.9639 250.786 45.1731 250.717 45.251Z" fill="#CA4844"/>
<path d="M249.86 44.9512C248.909 45.9841 247.385 46.4493 246.018 46.1243C245.375 45.9707 244.722 45.599 244.5 44.9757C244.213 44.1722 244.798 43.2462 245.593 42.9345C246.387 42.6229 247.298 42.7988 248.079 43.146C248.863 43.4933 249.571 44.0074 250.145 44.6441C250.1 44.7153 249.918 44.8889 249.86 44.9512Z" fill="#FAD383"/>
<path d="M246.61 43.6069C246.919 43.8985 246.935 44.386 246.643 44.6954C246.352 45.0048 245.864 45.0204 245.555 44.7288C245.245 44.4372 245.23 43.9497 245.521 43.6403C245.813 43.3309 246.3 43.3153 246.61 43.6069Z" fill="#E4B34C"/>
<path d="M248.636 44.103C248.849 44.3033 248.865 44.635 248.671 44.842C248.477 45.049 248.146 45.0535 247.932 44.8509C247.718 44.6506 247.703 44.3189 247.896 44.1119C248.09 43.9049 248.422 43.9004 248.636 44.103Z" fill="#FFE199"/>
<path d="M246.02 43.6736C246.176 43.8205 246.16 44.0876 245.987 44.2724C245.813 44.4571 245.546 44.4883 245.392 44.3414C245.236 44.1945 245.252 43.9273 245.426 43.7426C245.597 43.5578 245.864 43.5267 246.02 43.6736Z" fill="#FFEAB8"/>
<path d="M256.31 53.7247C256.876 55.3363 256.502 57.2394 255.371 58.5194C254.837 59.1226 254.066 59.6101 253.27 59.4921C252.241 59.3407 251.585 58.1832 251.703 57.1504C251.823 56.1176 252.533 55.2428 253.352 54.604C254.173 53.9629 255.13 53.4954 256.143 53.2439C256.194 53.3329 256.277 53.6268 256.31 53.7247Z" fill="#CA4844"/>
<path d="M255.642 54.339C256.108 55.6634 255.8 57.2283 254.87 58.2811C254.432 58.7775 253.797 59.1782 253.143 59.0802C252.297 58.9556 251.756 58.0051 251.856 57.1548C251.956 56.3045 252.539 55.5855 253.212 55.0602C253.886 54.5327 254.674 54.1498 255.507 53.9406C255.549 54.0163 255.614 54.2589 255.642 54.339Z" fill="#FFE199"/>
<path d="M252.929 56.5742C253.332 56.4384 253.77 56.6543 253.906 57.0572C254.042 57.4601 253.826 57.8986 253.423 58.0344C253.02 58.1702 252.582 57.9543 252.446 57.5514C252.308 57.1485 252.526 56.71 252.929 56.5742Z" fill="#E4B34C"/>
<path d="M254.318 55.0203C254.596 54.9268 254.894 55.0692 254.986 55.3364C255.077 55.6057 254.925 55.8995 254.647 55.993C254.369 56.0865 254.071 55.944 253.979 55.6769C253.888 55.4076 254.039 55.1138 254.318 55.0203Z" fill="#E4B34C"/>
<path d="M252.709 57.126C252.911 57.057 253.14 57.1972 253.22 57.4376C253.301 57.678 253.203 57.9273 253.002 57.9941C252.8 58.0631 252.571 57.9229 252.49 57.6825C252.41 57.4443 252.508 57.195 252.709 57.126Z" fill="#FFEAB8"/>
<path d="M266.48 23.2605C266.878 22.7819 266.735 22.0075 266.161 21.5307C265.587 21.054 264.799 21.0555 264.402 21.534C264.004 22.0125 264.147 22.787 264.721 23.2637C265.296 23.7405 266.083 23.739 266.48 23.2605Z" fill="#FFEAB8"/>
<path d="M260.869 22.1924C260.589 22.5285 260.134 22.6108 259.852 22.3771C259.569 22.1434 259.567 21.6804 259.847 21.3443C260.128 21.0082 260.582 20.9258 260.865 21.1595C261.147 21.3932 261.149 21.8562 260.869 22.1924Z" fill="#FFEAB8"/>
<path d="M258.042 70.4284C257.828 70.6844 257.348 70.6377 256.967 70.3238C256.586 70.0078 256.453 69.5448 256.666 69.2866C256.88 69.0306 257.361 69.0773 257.742 69.3912C258.122 69.7072 258.256 70.1702 258.042 70.4284Z" fill="#FFEAB8"/>
<path d="M252.444 65.3846C252.337 65.5137 252.137 65.5226 251.996 65.4068C251.856 65.2911 251.829 65.093 251.936 64.9639C252.043 64.8348 252.243 64.8259 252.384 64.9416C252.524 65.0574 252.551 65.2577 252.444 65.3846Z" fill="#FFEAB8"/>
<path d="M213.846 23.3423C215.77 23.3423 217.33 22.5626 217.33 21.6008C217.33 20.6389 215.77 19.8592 213.846 19.8592C211.923 19.8592 210.363 20.6389 210.363 21.6008C210.363 22.5626 211.923 23.3423 213.846 23.3423Z" fill="white"/>
<path d="M212.105 39.8876C213.067 39.8876 213.846 39.3027 213.846 38.5814C213.846 37.86 213.067 37.2752 212.105 37.2752C211.143 37.2752 210.363 37.86 210.363 38.5814C210.363 39.3027 211.143 39.8876 212.105 39.8876Z" fill="white"/>
<path d="M215.588 57.7383C215.588 57.9779 215.199 58.1737 214.717 58.1737C214.236 58.1737 213.846 57.9795 213.846 57.7383C213.846 57.4972 214.236 57.3029 214.717 57.3029C215.199 57.3029 215.588 57.4988 215.588 57.7383Z" fill="white"/>
<path d="M219.942 84.7325C219.942 85.4533 219.357 86.0387 218.636 86.0387C217.914 86.0387 217.33 85.4533 217.33 84.7325C217.33 84.0117 217.914 83.4263 218.636 83.4263C219.359 83.4263 219.942 84.0117 219.942 84.7325Z" fill="white"/>
</g>
<defs>
<linearGradient id="paint0_linear_2090_1236" x1="300" y1="-25" x2="158.057" y2="165.041" gradientUnits="userSpaceOnUse">
<stop stop-color="white"/>
<stop offset="1" stop-color="white" stop-opacity="0"/>
</linearGradient>
<radialGradient id="paint1_radial_2090_1236" cx="0" cy="0" r="1" gradientUnits="userSpaceOnUse" gradientTransform="translate(202.143 46.1377) scale(42.2281 42.2281)">
<stop stop-color="#330902"/>
<stop offset="1" stop-color="#170300"/>
</radialGradient>
<radialGradient id="paint2_radial_2090_1236" cx="0" cy="0" r="1" gradientUnits="userSpaceOnUse" gradientTransform="translate(186.923 46.1598) scale(32.4644 32.4645)">
<stop stop-color="#330902"/>
<stop offset="1" stop-color="#170300"/>
</radialGradient>
</defs>
</svg>
