<svg width="80" height="72" viewBox="0 0 80 72" fill="none" xmlns="http://www.w3.org/2000/svg">
<path d="M59.7957 69.7482C64.9999 67.5971 69.7877 63.8501 72.9796 60.1725C79.4327 52.6785 80.4735 41.6457 78.3225 32.0007C77.2123 26.9353 75.2694 21.9393 72.1469 17.776C64.2366 6.95138 50.4976 0.983945 37.175 0.0818918C28.9177 -0.473218 19.8972 1.81661 12.9583 6.25748C1.64795 13.6127 -3.41742 29.2945 2.48062 42.409C7.89294 54.4133 16.7053 52.1928 26.4197 57.5357C34.3994 61.9072 39.1873 70.789 49.1792 71.691C52.7181 71.9686 56.3956 71.2053 59.7957 69.7482Z" fill="#F4F4F4"/>
<path d="M2.55002 42.3396C7.96234 54.3439 16.7747 52.1234 26.4891 57.4664C34.4688 61.8378 39.2566 70.7196 49.2486 71.6217C52.7181 71.8992 56.3263 71.1359 59.7957 69.6788C61.8774 68.8461 63.8203 67.7359 65.6937 66.4869C42.4485 65.3073 15.3869 47.405 10.6685 32.764C7.33785 22.3557 11.2236 11.878 15.1094 4.86972C14.3461 5.28605 13.6522 5.70238 12.9583 6.11871C1.71735 13.5433 -3.34802 29.2252 2.55002 42.3396Z" fill="#E3E3E3"/>
<path d="M54.9385 54.899C63.4077 54.899 70.2734 48.0333 70.2734 39.5641C70.2734 31.0948 63.4077 24.2292 54.9385 24.2292C46.4693 24.2292 39.6036 31.0948 39.6036 39.5641C39.6036 48.0333 46.4693 54.899 54.9385 54.899Z" fill="#EBB64A"/>
<path d="M58.8937 51.8458C50.4283 51.8458 43.5588 44.9764 43.5588 36.5109C43.5588 32.4864 45.1547 28.8088 47.7221 26.0332C42.9343 28.6006 39.6036 33.666 39.6036 39.564C39.6036 48.0295 46.4731 54.8989 54.9385 54.8989C59.3794 54.8989 63.3346 53.0254 66.1101 50.0417C63.9591 51.2213 61.4611 51.8458 58.8937 51.8458Z" fill="#E3A63B"/>
<path d="M66.3876 40.5355C64.3059 42.1314 64.5835 37.3436 61.8773 33.8741C59.1712 30.4047 54.4527 29.5026 56.5344 27.9067C58.6161 26.3108 62.5018 27.7679 65.208 31.2374C67.9835 34.7762 68.4693 38.8701 66.3876 40.5355Z" fill="white"/>
</svg>
