<svg width="18" height="18" viewBox="0 0 18 18" fill="none" xmlns="http://www.w3.org/2000/svg">
<path d="M12.997 2.55348C12.5777 2.41278 12.1367 2.35048 11.695 2.35048C10.722 2.34348 9.77771 2.66548 9.00001 3.25978C8.93701 3.21148 8.86001 3.16878 8.79001 3.12748C8.72001 3.08478 8.59401 2.98048 8.48901 2.92448L8.22301 2.80548C8.08301 2.72848 7.93671 2.67248 7.78201 2.62278C7.76801 2.60948 7.74701 2.59478 7.71901 2.58148H7.67771C7.26401 2.44078 6.83701 2.36378 6.39601 2.35048H6.31901C6.12301 2.35048 5.92771 2.36378 5.73101 2.39248H5.64701C5.43701 2.41978 5.22771 2.46878 5.02471 2.53878C2.41301 3.39348 1.48201 6.22848 2.27301 8.70648C2.72101 9.97278 3.44271 11.1215 4.38071 12.0658C5.74501 13.3818 7.23671 14.5438 8.83901 15.5378L9.02101 15.6505L9.19601 15.5448C10.7927 14.5438 12.276 13.3818 13.6277 12.0728C14.572 11.1285 15.293 9.97278 15.734 8.70648C16.5117 6.22848 15.5807 3.39348 12.997 2.55348Z" fill="#70B9BE"/>
<path d="M14.1099 6.85778C14.0889 7.15248 13.8439 7.38278 13.5569 7.39048C13.4029 7.37578 13.2559 7.30648 13.1579 7.18748C13.0599 7.06848 13.0116 6.91378 13.0249 6.75348V6.73178C13.0249 6.24248 12.7246 5.80078 12.2759 5.63278C11.9819 5.52848 11.8279 5.20648 11.9259 4.91248C12.0309 4.61848 12.3459 4.46378 12.6329 4.56248C13.5366 4.90548 14.1309 5.79378 14.1099 6.77448V6.85778Z" fill="#C6E3E5"/>
</svg>
