<svg width="24" height="24" viewBox="0 0 24 24" fill="none" xmlns="http://www.w3.org/2000/svg">
<path d="M17.9591 20.0374C16.3671 21.6146 14.2532 22.4803 12 22.4803C9.74683 22.4803 7.63298 21.6146 6.04092 20.0374C4.45479 18.4631 3.5802 16.3759 3.5802 14.1554C3.5802 12.8657 3.87074 11.6294 4.44294 10.4791C5.0003 9.35548 5.83043 8.35044 6.83843 7.57665C7.4813 7.08508 8.06438 6.51991 8.57576 5.89268C9.31694 4.98844 9.89803 3.98044 10.3012 2.89831C10.4666 2.45194 10.5868 1.99009 10.66 1.51971C11.3745 2.17788 11.9733 2.97243 12.4744 3.90335C13.4646 5.75927 13.9212 7.41062 13.8322 8.8159C13.811 9.14687 13.865 9.47835 13.9903 9.78543C14.1156 10.0925 14.3089 10.3672 14.5556 10.5888C14.7694 10.7819 15.0195 10.9307 15.2913 11.0264C15.563 11.122 15.8511 11.1628 16.1388 11.1462C16.7228 11.1165 17.2594 10.8586 17.6508 10.4228C18.0451 9.98104 18.386 9.5304 18.6706 9.07087C19.0857 9.60155 19.4326 10.1797 19.7083 10.8023C20.1797 11.8636 20.4198 12.9932 20.4198 14.1554C20.4198 16.3759 19.5452 18.4661 17.9591 20.0374Z" stroke="#0A2533" stroke-width="1.5" stroke-linejoin="round"/>
<path d="M13.6455 18.309C13.0066 18.942 12.1582 19.2895 11.2539 19.2895C10.3496 19.2895 9.50119 18.942 8.86223 18.309C8.22565 17.6772 7.87463 16.8395 7.87463 15.9483C7.87463 15.4307 7.99124 14.9345 8.22089 14.4729C8.44458 14.0219 8.77775 13.6185 9.1823 13.308C9.44031 13.1107 9.67433 12.8839 9.87957 12.6321C10.177 12.2692 10.4103 11.8647 10.5721 11.4304C10.6385 11.2512 10.6867 11.0659 10.7161 10.8771C11.0028 11.1412 11.2432 11.4601 11.4443 11.8337C11.8417 12.5786 12.0249 13.2414 11.9892 13.8054C11.9807 13.9382 12.0024 14.0712 12.0527 14.1945C12.103 14.3177 12.1805 14.4279 12.2795 14.5169C12.3654 14.5944 12.4657 14.6541 12.5748 14.6925C12.6839 14.7309 12.7995 14.7473 12.9149 14.7406C13.1493 14.7287 13.3647 14.6252 13.5218 14.4503C13.68 14.273 13.8169 14.0921 13.9311 13.9077C14.0977 14.1207 14.2369 14.3527 14.3475 14.6026C14.5367 15.0285 14.6331 15.4819 14.6331 15.9483C14.6331 16.8395 14.2821 17.6784 13.6455 18.309Z" stroke="#0A2533" stroke-width="1.5" stroke-linejoin="round"/>
</svg>
