<svg width="11" height="15" viewBox="0 0 11 15" fill="none" xmlns="http://www.w3.org/2000/svg">
<path d="M0.151132 7.85527C0.607833 10.1388 2.25196 11.9656 4.26144 13.153C6.17959 14.2491 8.28041 14.4318 10.4726 14.3404C10.5639 14.3404 10.6552 14.3404 10.7466 14.3404C10.7466 14.2491 10.7466 14.1578 10.7466 14.0664C10.5639 11.1435 9.55918 8.40331 7.91506 5.93712C6.36227 3.65361 4.26143 1.82681 2.1606 0C0.607816 2.28351 -0.396911 5.29774 0.151132 7.85527Z" fill="#AEDC90"/>
<path d="M0.151132 7.85527C0.607833 10.1388 2.25196 11.9656 4.26144 13.153C6.17959 14.2491 8.28041 14.4318 10.4726 14.3404C10.5639 14.3404 10.6552 14.3404 10.7466 14.3404C1.24719 9.04268 2.1606 0 2.1606 0C0.607816 2.28351 -0.396911 5.29774 0.151132 7.85527Z" fill="#7CA661"/>
<path d="M2.52581 4.56701C2.98251 6.75918 4.26127 8.95135 5.72272 10.5955C7.00148 12.0569 8.55427 13.427 10.3811 14.3404C10.4724 14.3404 10.5638 14.3404 10.6551 14.3404C10.6551 14.2491 10.6551 14.1577 10.6551 14.0664C8.91965 13.0617 7.27552 11.9656 5.99675 10.3214C5.26603 9.40805 4.62664 8.49464 4.0786 7.4899C3.53056 6.48515 3.25655 5.48042 2.89119 4.47568C2.79985 4.293 2.52581 4.38433 2.52581 4.56701Z" fill="#39700B"/>
</svg>
