<svg width="48" height="48" viewBox="0 0 48 48" fill="none" xmlns="http://www.w3.org/2000/svg">
<path d="M23.9 47.8C37.0996 47.8 47.8 37.0996 47.8 23.9C47.8 10.7004 37.0996 0 23.9 0C10.7004 0 0 10.7004 0 23.9C0 37.0996 10.7004 47.8 23.9 47.8Z" fill="#EBB64A"/>
<path d="M23.9 45.4683C35.8118 45.4683 45.4683 35.8118 45.4683 23.9C45.4683 11.9881 35.8118 2.3317 23.9 2.3317C11.9882 2.3317 2.3317 11.9881 2.3317 23.9C2.3317 35.8118 11.9882 45.4683 23.9 45.4683Z" fill="white"/>
<path d="M4.6634 23.2523H19.2366C20.3377 23.2523 20.9206 21.8921 20.1433 21.1149L9.84497 10.7517C9.32682 10.2336 8.42004 10.2983 7.96666 10.8165C5.44064 13.8607 3.8214 17.6821 3.43278 21.8273C3.36801 22.6046 3.95093 23.2523 4.6634 23.2523Z" fill="#EEC94D"/>
<path d="M19.3014 24.4829H4.66343C3.88619 24.4829 3.30327 25.1306 3.43281 25.9078C3.82143 30.0531 5.50544 33.8745 7.96668 36.9187C8.42007 37.5016 9.32684 37.5664 9.845 36.9834L20.1434 26.6851C20.9854 25.843 20.4025 24.4829 19.3014 24.4829Z" fill="#EEC94D"/>
<path d="M21.8274 3.43278C17.6821 3.8214 13.8607 5.50541 10.8165 7.96666C10.2336 8.42004 10.1688 9.32682 10.7518 9.84498L21.0501 20.1434C21.8274 20.9206 23.1875 20.4024 23.1875 19.2366V4.66341C23.2523 3.95094 22.6046 3.36801 21.8274 3.43278Z" fill="#EEC94D"/>
<path d="M26.6851 20.2081L36.9835 9.9097C37.5016 9.39154 37.4368 8.48477 36.9187 8.03138C33.8745 5.50537 30.0531 3.88613 25.9078 3.49751C25.1306 3.43274 24.4829 4.01566 24.4829 4.72813V19.3013C24.4829 20.4024 25.8431 20.9853 26.6851 20.2081Z" fill="#EEC94D"/>
<path d="M28.4339 23.2523H43.007C43.7843 23.2523 44.3672 22.6046 44.2377 21.8273C43.849 17.6821 42.165 13.8607 39.7038 10.8165C39.2504 10.2336 38.3436 10.1688 37.8255 10.7517L27.5271 21.0501C26.7498 21.8921 27.3328 23.2523 28.4339 23.2523Z" fill="#EEC94D"/>
<path d="M43.0718 24.4829H28.4986C27.3975 24.4829 26.8146 25.843 27.5918 26.6203L37.8902 36.9187C38.4084 37.4368 39.3152 37.372 39.7686 36.8539C42.2946 33.8097 43.9138 29.9883 44.3024 25.843C44.3672 25.1306 43.7843 24.4829 43.0718 24.4829Z" fill="#EEC94D"/>
<path d="M21.1149 27.5271L10.8165 37.8254C10.2984 38.3436 10.3631 39.2504 10.8813 39.7038C13.9255 42.2298 17.7469 43.849 21.8921 44.2376C22.6694 44.3024 23.3171 43.7195 23.3171 43.007V28.4338C23.2523 27.3328 21.8921 26.7498 21.1149 27.5271Z" fill="#EEC94D"/>
<path d="M26.6851 27.5271C25.9079 26.7499 24.5477 27.2681 24.5477 28.4339V43.0071C24.5477 43.7843 25.1954 44.3672 25.9726 44.2377C30.1179 43.8491 33.9393 42.1651 36.9835 39.7038C37.5664 39.2504 37.6312 38.3437 37.0482 37.8255L26.6851 27.5271Z" fill="#EEC94D"/>
</svg>
