<svg width="49" height="43" viewBox="0 0 49 43" fill="none" xmlns="http://www.w3.org/2000/svg">
<path d="M1.12287 35.2388C1.12287 35.2388 4.20064 36.3827 5.95938 34.2379C7.71812 32.093 10.3562 26.0159 16.292 24.014C17.8309 23.5135 19.1499 23.0846 20.3224 22.7271C22.8872 21.9406 24.9391 20.0103 25.8185 17.5079C26.7711 14.9341 28.823 11.6453 33.2931 9.64342C41.4272 6.06865 41.2807 3.06585 42.2333 0.492011C43.186 -2.08183 49.5614 5.78267 48.1691 16.1495C46.7768 26.5164 36.5907 33.4514 36.5907 33.4514C36.5907 33.4514 32.2672 38.8851 22.7407 41.5304C13.2875 44.1757 8.9639 38.6706 7.27844 37.8126C5.66627 36.9547 2.66175 39.457 1.19613 38.1701C-0.12292 36.9547 1.12287 35.2388 1.12287 35.2388Z" fill="#D4E86D"/>
<path d="M48.1691 16.221C49.5614 5.85413 43.186 -2.08188 42.2333 0.563455C41.6471 2.20785 41.5005 3.99524 39.3754 5.99712C40.5479 7.92749 41.7204 11.0018 41.5738 15.7205C41.2807 25.1579 32.3405 23.9425 29.4825 27.0883C26.6246 30.2341 27.1375 37.7411 17.3912 38.4561C11.602 38.885 8.23108 36.0967 6.47235 33.5944C6.2525 33.8803 6.10593 34.0948 5.95937 34.3093C4.20064 36.4542 1.12286 35.3102 1.12286 35.3102C1.12286 35.3102 -0.122922 36.9546 1.26941 38.2416C2.66175 39.5285 5.66627 37.0261 7.35172 37.8841C8.9639 38.742 13.2874 44.2472 22.8139 41.6019C32.2671 38.9565 36.664 33.5229 36.664 33.5229C36.664 33.5229 46.7035 26.5878 48.1691 16.221Z" fill="#B5CD5A"/>
</svg>
